<svg width="230.000000" height="230.000000" viewBox="0 0 230 230" fill="none" xmlns="http://www.w3.org/2000/svg" xmlns:xlink="http://www.w3.org/1999/xlink">
	<desc>
			Created with Pixso.
	</desc>
	<defs>
		<linearGradient x1="46.403488" y1="25.219284" x2="180.570145" y2="209.320145" id="paint_linear_37_196_0" gradientUnits="userSpaceOnUse">
			<stop stop-color="#ED7B50"/>
			<stop offset="0.541667" stop-color="#488AEA"/>
			<stop offset="1.000000" stop-color="#2C2C2C"/>
		</linearGradient>
	</defs>
	<path d="M211.321 52.1487L177.851 18.679C191.187 27.3986 202.602 38.8129 211.321 52.1487ZM174.065 16.3069L213.693 55.9348C217.647 62.5273 220.959 69.5488 223.543 76.913L153.087 6.45703C160.451 9.04089 167.473 12.353 174.065 16.3069ZM150.945 5.72913L224.271 79.0549C225.703 83.41 226.881 87.88 227.789 92.4474L137.553 2.21057C142.12 3.11877 146.59 4.29736 150.945 5.72913ZM135.805 1.8772L228.123 94.1949C228.884 98.3628 229.421 102.609 229.721 106.921L123.079 0.279419C127.391 0.578613 131.637 1.1156 135.805 1.8772ZM121.57 0.18457L229.815 108.43C229.938 110.604 230 112.795 230 115C230 116.557 229.969 118.108 229.908 119.65L110.35 0.0922852C111.892 0.0310059 113.443 0 115 0C117.205 0 119.396 0.0620117 121.57 0.18457ZM108.997 0.153931L229.846 121.003C229.689 124.053 229.414 127.071 229.024 130.054L99.9459 0.97644C102.929 0.586548 105.947 0.310791 108.997 0.153931ZM98.7013 1.14612L228.854 131.299C228.404 134.473 227.823 137.606 227.119 140.692L89.3079 2.88074C92.3936 2.17651 95.5266 1.59656 98.7013 1.14612ZM88.1615 3.14856L226.851 141.839C226.148 144.779 225.333 147.676 224.408 150.524L79.4764 5.59155C82.3243 4.66748 85.2209 3.85156 88.1615 3.14856ZM78.413 5.94238L224.058 151.587C223.241 154.021 222.346 156.419 221.374 158.778L71.2225 8.62573C73.5809 7.65417 75.9788 6.75867 78.413 5.94238ZM70.2248 9.04236L220.958 159.775C219.867 162.353 218.685 164.883 217.415 167.361L62.639 12.5846C65.1168 11.3152 67.6468 10.1331 70.2248 9.04236ZM0.0806274 119.347C0.0270386 117.905 0 116.456 0 115C0 113.163 0.0430908 111.337 0.128235 109.521L120.479 229.872C118.664 229.957 116.837 230 115 230C113.544 230 112.095 229.973 110.653 229.919L0.0806274 119.347ZM1.43988 133.249C0.790344 129.175 0.354797 125.03 0.14502 120.826L109.174 229.855C104.97 229.645 100.825 229.21 96.7513 228.56L1.43988 133.249ZM5.31793 149.669C3.80847 144.889 2.60284 139.974 1.72369 134.947L95.0533 228.276C90.0261 227.397 85.111 226.192 80.331 224.682L5.31793 149.669ZM15.085 171.978C11.4395 165.599 8.38721 158.838 6.00342 151.769L78.2313 223.997C71.1622 221.613 64.4006 218.561 58.0217 214.915L15.085 171.978ZM54.5281 212.836C39.3689 203.446 26.5542 190.631 17.1644 175.472L54.5281 212.836ZM131.915 228.765C128.595 229.254 125.229 229.602 121.823 229.801L0.199036 108.177C0.398315 104.771 0.745789 101.405 1.23517 98.0854L131.915 228.765ZM142.406 226.714C139.364 227.458 136.273 228.081 133.141 228.577L1.42279 96.8589C1.91913 93.7266 2.54193 90.6365 3.28583 87.5939L142.406 226.714ZM151.175 224.195C148.666 225.026 146.119 225.772 143.538 226.431L3.56854 86.4624C4.22778 83.8805 4.97443 81.3336 5.80505 78.825L151.175 224.195ZM160.269 220.747C157.64 221.874 154.959 222.906 152.233 223.839L6.16113 77.7668C7.09357 75.0405 8.12561 72.3602 9.25281 69.7306L160.269 220.747ZM168.754 216.69C166.306 217.987 163.805 219.198 161.255 220.319L9.68097 68.7445C10.8023 66.1952 12.0134 63.6942 13.3104 61.2457L168.754 216.69ZM175.913 212.561C173.876 213.836 171.796 215.048 169.675 216.196L13.8036 60.3248C14.9517 58.2043 16.1644 56.124 17.4393 54.0865L175.913 212.561ZM183.372 207.477C181.23 209.063 179.032 210.576 176.78 212.013L17.9869 53.22C19.4239 50.9681 20.9372 48.7697 22.5231 46.6282L183.372 207.477ZM190.331 201.894C188.34 203.622 186.289 205.282 184.181 206.872L23.1279 45.8188C24.7176 43.7111 26.3781 41.6599 28.1058 39.6686L190.331 201.894ZM196.18 196.455C194.531 198.098 192.832 199.692 191.086 201.234L28.7659 38.9144C30.3077 37.1685 31.9017 35.4695 33.5455 33.8202L196.18 196.455ZM202.221 189.953C200.508 191.944 198.728 193.876 196.885 195.746L34.2545 33.115C36.1236 31.2717 38.0555 29.4919 40.0468 27.7792L202.221 189.953ZM207.776 182.966C206.212 185.098 204.576 187.174 202.872 189.19L40.8102 27.1283C42.8265 25.4242 44.9022 23.7882 47.0339 22.224L207.776 182.966ZM212.349 176.251C211.083 178.259 209.756 180.225 208.371 182.147L47.8527 21.6285C49.7746 20.244 51.7409 18.9174 53.7492 17.6512L212.349 176.251ZM216.933 168.293C215.668 170.707 214.32 173.071 212.892 175.38L54.6199 17.1077C56.9293 15.6801 59.2932 14.332 61.7074 13.0671L216.933 168.293Z" clip-rule="evenodd" fill="url(#paint_linear_37_196_0)" fill-opacity="0.400000" fill-rule="evenodd"/>
</svg>
